<?xml version="1.0" encoding="utf-8"?>
<!-- Generator: Adobe Illustrator 19.1.0, SVG Export Plug-In . SVG Version: 6.00 Build 0)  -->
<svg version="1.1" id="Layer_1" xmlns="http://www.w3.org/2000/svg" xmlns:xlink="http://www.w3.org/1999/xlink" x="0px" y="0px"
	 viewBox="0 0 100 93.5" style="enable-background:new 0 0 100 93.5;" xml:space="preserve">
<style type="text/css">
	.st0{fill:#FFE600;}
</style>
<g>
	<path class="st0" d="M84.3,35c-1-0.6-2.1-1.1-3.1-1.6c0.1-1.3,0.2-2.5,0.2-3.8c0-13.2-8.3-25-20.7-29.5c-1-0.3-2.1,0.1-2.5,1.1
		s0,2.1,0.9,2.5C65.8,7.2,70,14,70,21.6c0,2.5-0.5,4.9-1.3,7.1c-5.1-4.3-11.7-6.8-18.8-6.8s-13.5,2.5-18.6,6.7
		c-0.8-2.2-1.3-4.6-1.3-7c0-7.5,4.2-14.4,10.9-17.8c0.9-0.5,1.3-1.6,0.9-2.5c-0.4-1-1.5-1.4-2.5-1.1C26.9,4.6,18.6,16.5,18.6,29.7
		c0,1.2,0.1,2.5,0.2,3.7c-1.1,0.5-2.1,1-3.2,1.6C4.3,41.6-1.8,54.7,0.5,67.7c0.2,1,1,1.6,2,1.6c1.1,0,2-0.9,2-2c0-0.1,0-0.2,0-0.3
		c-0.3-7.5,3.5-14.4,10-18.2c2-1.2,4.3-2,6.6-2.4c-0.3,1.5-0.4,3.1-0.4,4.7c0,12.7,8.1,23.5,19.4,27.6c-1.5,1.9-3.4,3.5-5.5,4.7
		c-3,1.7-6.5,2.7-10,2.7c-3.9,0-7.7-1.1-10.9-3.2c-0.9-0.6-2-0.4-2.7,0.5s-0.5,2,0.3,2.7c5.7,4.8,12.8,7.4,20.3,7.4
		c5.5,0,10.9-1.5,15.7-4.2c1-0.6,2-1.2,2.9-1.9c0.9,0.7,1.9,1.3,2.9,1.9c4.8,2.7,10.2,4.2,15.7,4.2c7.4,0,14.6-2.6,20.3-7.4
		c0.8-0.7,0.9-1.9,0.3-2.7c-0.6-0.8-1.8-1.1-2.7-0.5c-3.3,2.1-7,3.2-10.9,3.2c-3.5,0-6.9-0.9-10-2.7c-2.1-1.2-4-2.9-5.6-4.8
		c11-4,19-14.8,19-27.4c0-1.6-0.1-3.2-0.4-4.7c2.4,0.4,4.7,1.2,6.8,2.4c6.5,3.8,10.4,10.8,10,18.4c-0.1,1,0.7,1.9,1.7,2.1
		c1,0.1,2-0.6,2.2-1.6C101.8,54.7,95.7,41.6,84.3,35z M62.9,36.8c-2.7,2.3-5.9,3.8-9.5,4.5c-2.3,0.4-4.7,0.4-7,0
		c-3.6-0.6-6.9-2.2-9.5-4.5c3.4-3.1,8-5,13-5S59.5,33.7,62.9,36.8z M30.4,51.2c0-1.3,0.1-2.7,0.4-3.9c3.3,1.1,6.4,3.2,8.7,5.9
		c0.8,1,1.5,2,2.1,3s1.1,2,1.5,3.1c1.3,3.4,1.5,7,0.9,10.5C36.2,67.3,30.4,59.9,30.4,51.2z M55.9,69.7c-0.6-3.5-0.3-7,0.9-10.4
		c0.4-1.1,0.9-2.1,1.5-3.1c0.6-1.1,1.3-2.1,2.1-3c2.3-2.7,5.3-4.7,8.5-5.8c0.3,1.3,0.4,2.5,0.4,3.9C69.3,59.9,63.7,67.2,55.9,69.7z"
		/>
</g>
</svg>
